<?xml version="1.0" encoding="UTF-8"?><svg id="Camada_1" xmlns="http://www.w3.org/2000/svg" viewBox="0 0 908 225"><defs><style>.cls-1{fill:#39a935;}.cls-2{fill:#3c3c3b;}</style></defs><g><path class="cls-2" d="M373.11,62.99c-1.19,2.19-3.88,2.97-6.11,1.87-5.96-2.94-12.97-4.57-20.67-4.57-12.51,0-21.3,7-21.3,18.47s8.27,18.54,21.22,18.54c8.56,0,16.31-1.79,19.21-4.32v-7.82h-10.61c-2.16,0-3.91-1.75-3.91-3.91h0c0-2.16,1.75-3.91,3.91-3.91h15.83c2.26,0,4.09,1.83,4.09,4.09v15.28c0,1.44-.73,2.81-1.99,3.51-4.75,2.65-13.69,5.35-27.2,5.35-16.83,0-30.09-9.76-30.09-26.81s14.15-26.74,30.83-26.74c9.75,0,18.85,2.24,24.46,4.55,2.53,1.04,3.62,4.01,2.32,6.41h0Z"/><path class="cls-2" d="M444.79,69.3c0-9.61-6.18-15.64-18.62-15.64h-21.55c-2.3,0-4.17,1.87-4.17,4.17h0c0,2.3,1.87,4.17,4.17,4.17h21.47c5.73,0,8.94,2.53,8.94,7,0,4.77-3.65,7.22-10.05,7.22h-20.36c-2.3,0-4.17,1.87-4.17,4.17v.22c0,2.3,1.87,4.17,4.17,4.17h11.35l14.46,17.62c.79,.96,1.97,1.52,3.22,1.52h1.76c3.59,0,5.5-4.23,3.13-6.93l-10.81-12.29c10.5-.82,17.05-6.18,17.05-15.42Z"/><path class="cls-2" d="M304.73,135.14c-1.96,1-4.31,.41-5.63-1.35-3.33-4.45-9.61-7.49-17.17-7.49-12.44,0-21.15,7-21.15,18.47s8.12,18.54,21.08,18.54c8.4,0,13.93-2.87,17.14-7.29,1.2-1.65,3.46-2.12,5.32-1.27h0c2.53,1.15,3.47,4.35,1.84,6.6-4.79,6.58-13.06,10.23-24.97,10.23-16.83,0-30.09-9.76-30.09-26.81s14.15-26.74,30.83-26.74c10.6,0,19.37,4.38,24.33,10.47,1.74,2.14,.93,5.38-1.53,6.64h0Z"/><path class="cls-2" d="M442.18,169.94h0c-1.6,0-3.16-.54-4.43-1.52l-47.25-36.83v33.48c0,2.69-2.18,4.88-4.88,4.88h0c-2.69,0-4.88-2.18-4.88-4.88v-38.19c0-3.98,3.23-7.21,7.21-7.21h.26c1.58,0,3.12,.52,4.38,1.49l46.97,35.97v-32.54c0-2.71,2.2-4.92,4.92-4.92h0c2.71,0,4.92,2.2,4.92,4.92v38.15c0,3.98-3.23,7.21-7.21,7.21Z"/><path class="cls-2" d="M462.09,105.44h0c-2.57,0-4.65-2.08-4.65-4.65V59.83c0-2.57,2.08-4.65,4.65-4.65h0c2.57,0,4.65,2.08,4.65,4.65v40.96c0,2.57-2.08,4.65-4.65,4.65Z"/><path class="cls-2" d="M283.06,53.66h0c-3.65,0-7,2.05-8.65,5.3l-19.6,38.46c-1.52,2.98,.65,6.51,3.99,6.51h0c1.69,0,3.23-.95,3.99-2.45l4.57-9.02,3.57-7.67,12.06-23.01,11.97,22.98h-7.86c-2.11,0-3.83,1.71-3.83,3.83h0c0,2.11,1.71,3.83,3.83,3.83h11.27s.02,.05,.02,.05l4.62,8.89c.82,1.58,2.46,2.58,4.25,2.58h0c3.59,0,5.9-3.81,4.24-7l-19.84-38.05c-1.67-3.21-4.99-5.22-8.61-5.22Z"/><rect class="cls-2" x="365.5" y="74.56" width="51.08" height="9.29" rx="1.08" ry="1.08" transform="translate(470.24 -311.84) rotate(90)"/><path class="cls-2" d="M442.18,169.94h0c-1.6,0-3.16-.54-4.43-1.52l-47.25-36.83v33.48c0,2.69-2.18,4.88-4.88,4.88h0c-2.69,0-4.88-2.18-4.88-4.88v-38.19c0-3.98,3.23-7.21,7.21-7.21h.26c1.58,0,3.12,.52,4.38,1.49l46.97,35.97v-32.54c0-2.71,2.2-4.92,4.92-4.92h0c2.71,0,4.92,2.2,4.92,4.92v38.15c0,3.98-3.23,7.21-7.21,7.21Z"/><g><path class="cls-1" d="M325.38,160.41c1.43-1.43,1.72-3.68,.61-5.36-1.97-2.97-3.12-6.48-3.12-10.24,0-10.7,9.18-19.4,20.47-19.4,3.62,0,7.03,.9,9.98,2.48,1.74,.93,3.87,.72,5.26-.68l.06-.06c2.02-2.02,1.6-5.47-.9-6.84-4.25-2.34-9.17-3.68-14.4-3.68-16.13,0-29.25,12.64-29.25,28.18,0,5.51,1.67,10.65,4.53,14.99,1.51,2.29,4.76,2.61,6.71,.67l.05-.05Z"/><path class="cls-2" d="M363.85,134.44c-1.18,1.18-1.55,2.91-1.02,4.49,.63,1.85,.98,3.82,.98,5.87,0,10.7-9.18,19.4-20.47,19.4-1.89,0-3.72-.25-5.46-.71-1.5-.4-3.1,.01-4.2,1.11l-.06,.06c-2.38,2.38-1.27,6.43,1.97,7.3,2.47,.66,5.06,1.01,7.74,1.01,16.13,0,29.25-12.64,29.25-28.18,0-3.06-.52-6.01-1.47-8.77-1.05-3.04-4.93-3.94-7.21-1.66l-.06,.06Z"/></g><g><path class="cls-2" d="M594.46,165.2v.75c0,2.2-1.78,3.98-3.98,3.98h-43.84c-3.36,0-6.09-2.73-6.09-6.09v-38.09c0-3.36,2.73-6.09,6.09-6.09h42.88c2.2,0,3.98,1.78,3.98,3.98h0c0,2.2-1.78,3.98-3.98,3.98h-37.85c-1,0-1.81,.81-1.81,1.81v10.63h0v8.04h0v11.29c0,1,.81,1.81,1.81,1.81h38.82c2.2,0,3.98,1.78,3.98,3.98Z"/><rect class="cls-1" x="555.64" y="140.07" width="32.88" height="8.04" rx="4.02" ry="4.02"/><path class="cls-2" d="M653.98,135.14c-1.96,1-4.31,.41-5.63-1.35-3.33-4.45-9.61-7.49-17.17-7.49-12.44,0-21.15,7-21.15,18.47s8.12,18.54,21.08,18.54c8.4,0,13.93-2.87,17.14-7.29,1.2-1.65,3.46-2.12,5.32-1.27h0c2.53,1.15,3.47,4.35,1.84,6.6-4.79,6.58-13.06,10.23-24.97,10.23-16.83,0-30.09-9.76-30.09-26.81s14.15-26.74,30.83-26.74c10.6,0,19.37,4.38,24.33,10.47,1.74,2.14,.93,5.38-1.53,6.64h0Z"/><path class="cls-2" d="M709.52,128.38h-17.46v37.2c0,2.41-1.95,4.36-4.36,4.36h-.6c-2.41,0-4.36-1.95-4.36-4.36v-37.2h-17.39c-2.41,0-4.36-1.95-4.36-4.36h0c0-2.41,1.95-4.36,4.36-4.36h44.16c2.41,0,4.36,1.95,4.36,4.36h0c0,2.41-1.95,4.36-4.36,4.36Z"/><path class="cls-2" d="M726.65,169.94h0c-2.57,0-4.65-2.08-4.65-4.65v-40.96c0-2.57,2.08-4.65,4.65-4.65h0c2.57,0,4.65,2.08,4.65,4.65v40.96c0,2.57-2.08,4.65-4.65,4.65Z"/><path class="cls-2" d="M521.38,169.94h0c-1.6,0-3.16-.54-4.43-1.52l-47.25-36.83v33.48c0,2.69-2.18,4.88-4.88,4.88h0c-2.69,0-4.88-2.18-4.88-4.88v-38.19c0-3.98,3.23-7.21,7.21-7.21h.26c1.58,0,3.12,.52,4.38,1.49l46.97,35.97v-32.54c0-2.71,2.2-4.92,4.92-4.92h0c2.71,0,4.92,2.2,4.92,4.92v38.15c0,3.98-3.23,7.21-7.21,7.21Z"/><path class="cls-2" d="M870.15,169.94h0c-1.6,0-3.16-.54-4.43-1.52l-47.25-36.83v33.48c0,2.69-2.18,4.88-4.88,4.88h0c-2.69,0-4.88-2.18-4.88-4.88v-38.19c0-3.98,3.23-7.21,7.21-7.21h.26c1.58,0,3.12,.52,4.38,1.49l46.97,35.97v-32.54c0-2.71,2.2-4.92,4.92-4.92h0c2.71,0,4.92,2.2,4.92,4.92v38.15c0,3.98-3.23,7.21-7.21,7.21Z"/><g><path class="cls-1" d="M753.25,160.41c1.43-1.43,1.72-3.68,.61-5.36-1.97-2.97-3.12-6.48-3.12-10.24,0-10.7,9.18-19.4,20.47-19.4,3.62,0,7.03,.9,9.98,2.48,1.74,.93,3.87,.72,5.26-.68l.06-.06c2.02-2.02,1.6-5.47-.9-6.84-4.25-2.34-9.17-3.68-14.4-3.68-16.13,0-29.25,12.64-29.25,28.18,0,5.51,1.67,10.65,4.53,14.99,1.51,2.29,4.76,2.61,6.71,.67l.05-.05Z"/><path class="cls-2" d="M791.72,134.44c-1.18,1.18-1.55,2.91-1.02,4.49,.63,1.85,.98,3.82,.98,5.87,0,10.7-9.18,19.4-20.47,19.4-1.89,0-3.72-.25-5.46-.71-1.5-.4-3.1,.01-4.2,1.11l-.06,.06c-2.38,2.38-1.27,6.43,1.97,7.3,2.47,.66,5.06,1.01,7.74,1.01,16.13,0,29.25-12.64,29.25-28.18,0-3.06-.52-6.01-1.47-8.77-1.05-3.04-4.93-3.94-7.21-1.66l-.06,.06Z"/></g></g></g><g><path class="cls-1" d="M207.88,96.3c-.7-3.79-4.42-6.2-8.14-5.21-3.26,.88-5.37,4.11-4.75,7.44,1.09,5.89,1.51,12.02,1.16,18.3-2.19,39.17-34.18,70.59-73.32,72.01-29.56,1.08-55.59-14.79-69.16-38.66-1.7-2.98-5.36-4.21-8.47-2.75-3.47,1.62-4.81,5.86-2.91,9.19,15.38,27.07,44.45,45.37,77.71,45.37,49.27,0,89.35-40.15,89.35-89.5,0-5.53-.51-10.94-1.47-16.2Z"/><path class="cls-1" d="M44.93,126.06c-1.04-5.77-1.43-11.76-1.09-17.89,2.19-39.17,34.18-70.59,73.32-72.01,1.91-.07,3.8-.06,5.68,.01,4.49,.18,7.4,4.82,5.69,8.98-.02,.05-.04,.1-.06,.16-1.06,2.51-3.57,4.1-6.29,3.98-.85-.04-1.57-.07-1.89-.07-.1,0-.19,0-.29,0-.08,0-.15,0-.23,0-.86,0-1.72,.02-2.57,.06-.16,0-.31,.02-.47,.03-.78,.04-1.56,.09-2.34,.16-.13,.01-.25,.02-.38,.03-.84,.08-1.67,.18-2.5,.29-.2,.03-.4,.06-.59,.08-.83,.12-1.65,.25-2.46,.4-.1,.02-.19,.04-.29,.06-.74,.14-1.47,.3-2.2,.46-.21,.05-.42,.09-.63,.14-.76,.18-1.52,.38-2.27,.59-.22,.06-.44,.13-.66,.19-.62,.18-1.23,.37-1.85,.57-.2,.06-.4,.12-.59,.19-.7,.24-1.4,.49-2.09,.75-.27,.1-.54,.21-.81,.31-.62,.24-1.23,.49-1.84,.75-.3,.13-.6,.26-.9,.4-.47,.21-.95,.43-1.41,.65-.3,.14-.61,.29-.91,.44-.59,.29-1.18,.6-1.76,.91-.33,.18-.66,.36-.98,.54-.36,.2-.71,.4-1.06,.61-.51,.3-1.01,.6-1.51,.91-.34,.21-.68,.42-1.01,.64-.36,.24-.72,.48-1.08,.72-.27,.18-.53,.37-.79,.55-.6,.42-1.19,.85-1.78,1.29-.21,.16-.42,.32-.63,.48-1.22,.94-2.4,1.93-3.55,2.96-.14,.13-.28,.26-.43,.39-.69,.63-1.36,1.27-2.02,1.93-.09,.09-.18,.17-.26,.26-.38,.38-.75,.77-1.12,1.16-.03,.04-.07,.07-.1,.11-8.6,9.19-14.51,20.92-16.43,33.95,0,0,0,0,0,0,0,.02,0,.05,0,.07-.15,1.03-.28,2.07-.38,3.12-.03,.34-.05,.68-.08,1.02-.06,.74-.12,1.49-.15,2.24-.02,.46-.02,.93-.04,1.39-.01,.49-.04,.98-.04,1.47,0,.16,.01,.32,.01,.47,0,.48,.02,.96,.04,1.44,.02,.66,.04,1.32,.08,1.97,.01,.17,0,.34,.02,.51,.02,.36,.07,.71,.1,1.06,.04,.5,.08,.99,.14,1.49,.05,.5,.12,.99,.19,1.49,.07,.54,.14,1.07,.23,1.6,.06,.4,.14,.79,.21,1.19,.11,.62,.22,1.25,.35,1.86,.04,.18,.08,.36,.12,.54,4.56,20.73,19.3,37.67,38.68,45.3,.08,.03,.15,.06,.23,.09,.76,.29,1.52,.57,2.29,.84,.21,.07,.41,.14,.62,.21,.67,.22,1.35,.44,2.03,.64,.32,.1,.65,.19,.97,.28,.59,.17,1.19,.33,1.79,.47,.43,.11,.86,.2,1.29,.3,.52,.12,1.04,.23,1.57,.34,.53,.11,1.07,.2,1.61,.29,.44,.08,.89,.16,1.34,.22,.64,.09,1.28,.17,1.93,.25,.37,.04,.73,.09,1.1,.13,.75,.07,1.51,.13,2.26,.17,.28,.02,.56,.05,.84,.06,.04,0,.08,0,.12,0,.92,.04,1.84,.06,2.75,.06,.1,0,.19,0,.29,0,.07,0,.14,0,.21,0,.94,0,1.88-.03,2.81-.07,.17,0,.34-.02,.51-.03,.94-.05,1.88-.12,2.81-.21,.12-.01,.24-.03,.36-.04,.92-.1,1.83-.21,2.73-.35,.08-.01,.16-.02,.24-.03,.91-.14,1.81-.31,2.71-.49,.18-.04,.37-.07,.55-.11,.85-.18,1.69-.37,2.53-.59,.22-.06,.43-.11,.65-.17,.82-.22,1.63-.45,2.44-.7,.21-.07,.42-.14,.64-.2,.72-.23,1.44-.47,2.16-.73,.24-.09,.49-.18,.73-.27,.67-.25,1.33-.51,1.99-.79,.27-.11,.53-.22,.79-.33,.69-.3,1.37-.61,2.04-.93,.31-.15,.62-.3,.93-.45,.64-.31,1.27-.64,1.89-.97,.33-.18,.66-.36,.99-.55,.44-.24,.87-.5,1.3-.75,.5-.3,1-.6,1.5-.91,.35-.22,.69-.44,1.04-.67,.56-.37,1.12-.75,1.67-1.14,.3-.21,.61-.43,.91-.65,.4-.29,.8-.59,1.19-.89,.16-.13,.32-.26,.49-.38,.71-.55,1.4-1.12,2.09-1.7,.15-.12,.29-.25,.43-.38,.7-.61,1.39-1.23,2.06-1.87,.12-.11,.23-.22,.34-.33,.74-.71,1.46-1.44,2.16-2.18,.04-.05,.09-.09,.13-.14,9.35-9.96,15.53-22.94,16.89-37.31,.02-.18,.02-.36,.04-.54,.08-.88,.14-1.77,.18-2.67,.02-.4,.02-.8,.03-1.21,.01-.53,.04-1.06,.04-1.59,0-.16-.01-.31-.01-.47,0-.48-.02-.96-.04-1.44-.02-.66-.04-1.32-.08-1.97-.01-.17,0-.34-.02-.51-.02-.36-.07-.71-.1-1.07-.04-.5-.08-.99-.14-1.49-.06-.5-.12-1-.19-1.49-.07-.54-.14-1.07-.23-1.6-.06-.4-.14-.79-.21-1.19-.11-.62-.22-1.25-.35-1.86-.04-.18-.09-.36-.13-.54-4.13-18.74-16.58-34.36-33.25-42.82-3.04-1.54-4.48-5.26-3.13-8.39l.07-.16c1.46-3.41,5.42-4.92,8.73-3.25,13.37,6.73,24.52,17.25,31.98,30.19,1.55,2.68,4.62,4.37,7.6,3.55,4.27-1.17,6.08-5.94,4-9.61-10.71-18.83-28.04-33.42-48.8-40.54-1.78-.61-16.64-4.81-28.9-4.81-49.27,0-89.35,40.15-89.35,89.5,0,5.53,.51,10.94,1.47,16.2,.77,4.21,5.29,6.73,9.37,4.74,2.7-1.31,3.97-4.42,3.44-7.38Zm123.81-25.22c.02,.1,.04,.19,.07,.29,.15,.65,.29,1.31,.42,1.97,.04,.21,.08,.43,.11,.64,.1,.56,.19,1.12,.27,1.69,.04,.31,.08,.63,.12,.95,.06,.48,.12,.96,.16,1.45,.04,.39,.06,.79,.09,1.18,.03,.43,.06,.85,.08,1.28,.02,.48,.03,.97,.04,1.46,0,.33,.02,.66,.01,.99,0,.41-.02,.81-.03,1.22-.01,.38-.02,.77-.04,1.15-.02,.35-.05,.69-.07,1.03-.03,.44-.06,.89-.1,1.33-.02,.23-.06,.47-.08,.7-.06,.55-.12,1.1-.2,1.64-1.45,9.89-5.78,18.85-12.11,25.99,0,.01-.02,.02-.03,.03-3.43,3.86-7.44,7.19-11.89,9.85-.1,.06-.2,.11-.29,.17-.62,.37-1.25,.72-1.89,1.06-.17,.09-.35,.18-.52,.27-.57,.29-1.15,.58-1.73,.85-.22,.1-.45,.2-.67,.31-.54,.24-1.09,.48-1.64,.7-.26,.11-.52,.21-.79,.31-.53,.2-1.05,.4-1.59,.58-.29,.1-.58,.2-.87,.3-.52,.17-1.04,.33-1.56,.48-.31,.09-.63,.18-.94,.27-.51,.14-1.03,.27-1.55,.39-.33,.08-.66,.16-.99,.23-.52,.11-1.04,.21-1.57,.3-.34,.06-.67,.13-1.01,.18-.54,.09-1.08,.16-1.63,.22-.33,.04-.65,.09-.98,.13-.59,.06-1.2,.11-1.8,.15-.28,.02-.57,.05-.85,.07-.89,.05-1.78,.07-2.68,.07s-1.86-.03-2.78-.08c-.27-.01-.54-.04-.82-.06-.65-.05-1.3-.1-1.95-.17-.3-.03-.59-.08-.89-.11-.63-.08-1.25-.17-1.87-.27-.28-.05-.55-.1-.83-.15-.65-.12-1.3-.25-1.94-.4-.28-.06-.56-.13-.84-.19-.77-.2-1.65-.47-2.56-.77-3.64-1.21-5.41-5.32-3.8-8.8,.03-.06,.06-.12,.08-.18,1.33-2.86,4.54-4.37,7.56-3.46,.18,.05,.37,.1,.55,.15,.47,.13,.94,.26,1.42,.37,.28,.07,.55,.13,.83,.19,.24,.05,.49,.1,.73,.15,.33,.07,.67,.12,1.01,.18,.19,.03,.38,.07,.57,.1,.52,.08,1.04,.14,1.56,.2,.16,.02,.33,.03,.49,.05,.41,.04,.83,.07,1.24,.1,.17,.01,.34,.02,.51,.03,.56,.03,1.13,.04,1.69,.04,.49,0,.98-.01,1.47-.03,.16,0,.32-.02,.48-.03,.32-.02,.65-.03,.97-.06,.19-.01,.38-.03,.57-.05,.29-.03,.58-.06,.88-.09,.2-.02,.4-.05,.59-.08,.28-.04,.56-.08,.84-.12,.2-.03,.4-.06,.59-.1,.28-.05,.55-.1,.82-.15,.2-.04,.39-.08,.59-.12,.28-.06,.55-.12,.83-.19,.18-.04,.37-.09,.55-.13,.29-.08,.58-.16,.87-.24,.16-.05,.33-.09,.49-.14,.37-.11,.74-.23,1.11-.35,.07-.02,.15-.05,.22-.07,.44-.15,.87-.31,1.31-.47,.14-.06,.28-.11,.43-.17,.29-.12,.58-.23,.86-.35,.17-.07,.34-.15,.51-.23,.25-.11,.51-.23,.76-.35,.18-.08,.35-.17,.53-.26,.24-.12,.48-.24,.72-.36,.18-.09,.35-.18,.53-.28,.23-.13,.47-.26,.7-.39,.17-.1,.34-.19,.51-.29,.23-.14,.46-.28,.69-.42,.16-.1,.32-.2,.48-.3,.24-.16,.48-.32,.72-.48,.14-.09,.28-.19,.42-.28,.3-.21,.59-.42,.88-.63,.08-.06,.16-.11,.23-.17,.37-.28,.73-.56,1.08-.85,.09-.08,.18-.15,.28-.23,.26-.22,.52-.43,.78-.66,.12-.11,.24-.22,.36-.32,.22-.2,.44-.4,.66-.6,.13-.12,.25-.24,.37-.36,.21-.2,.41-.4,.62-.61,.12-.12,.24-.25,.36-.38,.2-.21,.4-.42,.6-.64,.11-.13,.23-.25,.34-.38,.2-.23,.4-.46,.6-.69,.1-.12,.2-.23,.3-.35,.22-.26,.43-.53,.64-.8,.07-.09,.15-.18,.22-.28,.27-.36,.54-.72,.81-1.09,0,0,0-.01,.01-.02,.55-.77,1.07-1.57,1.56-2.39,.04-.06,.07-.13,.11-.19,.2-.34,.4-.68,.59-1.03,.05-.09,.09-.18,.14-.26,.18-.33,.35-.66,.52-.99,.05-.09,.09-.19,.14-.28,.08-.17,.17-.34,.25-.52h-.01c.73-1.54,1.36-3.13,1.87-4.78,1.24-3.97-1.55-8.07-5.69-8.43-3.07-.27-5.89,1.65-6.81,4.59-1.14,3.62-3.11,6.87-5.69,9.53-.1,.1-.2,.19-.3,.29-.29,.29-.59,.57-.89,.85-.15,.13-.29,.26-.44,.39-.37,.31-.74,.62-1.13,.91-.12,.09-.25,.18-.37,.27-.34,.25-.68,.49-1.04,.71-.16,.1-.32,.21-.48,.31-.43,.26-.86,.52-1.3,.76-.1,.05-.2,.1-.31,.16-.41,.21-.82,.41-1.24,.59-.16,.07-.32,.14-.48,.21-.5,.21-1,.41-1.51,.58-.06,.02-.11,.03-.17,.05-.48,.16-.97,.3-1.47,.43-.15,.04-.3,.08-.46,.12-.55,.13-1.1,.25-1.66,.35-.02,0-.05,0-.07,0-.55,.09-1.1,.15-1.66,.21-.15,.01-.3,.03-.45,.04-.58,.04-1.17,.07-1.77,.07-.52,0-1.03-.02-1.54-.05-.14,0-.28-.02-.43-.03-.4-.03-.8-.08-1.2-.13-.11-.01-.22-.03-.33-.04-.49-.07-.98-.16-1.46-.26-.1-.02-.21-.05-.31-.07-.39-.09-.78-.19-1.17-.29-.13-.04-.25-.07-.38-.11-.95-.28-1.88-.62-2.77-1.02-.11-.05-.22-.1-.33-.15-.37-.17-.74-.35-1.11-.54-.08-.04-.16-.08-.23-.12-.44-.23-.87-.48-1.29-.74-.06-.04-.11-.07-.17-.11-.37-.23-.73-.47-1.08-.72-.08-.06-.16-.12-.25-.18-.81-.59-1.58-1.22-2.3-1.9-.06-.05-.12-.11-.17-.17-.33-.32-.66-.64-.97-.98-.03-.03-.06-.06-.09-.1-.35-.38-.69-.77-1.02-1.18,0-.01-.02-.02-.02-.03-.31-.38-.61-.78-.89-1.18-.04-.05-.07-.1-.11-.15-.59-.84-1.13-1.73-1.61-2.65-1.74-3.33-2.73-7.1-2.73-11.11,0-2.47,.37-4.84,1.07-7.08,.01-.04,.03-.07,.04-.1,.19-.6,.4-1.2,.64-1.78,0,0,0-.02,0-.02,.23-.58,.49-1.15,.77-1.71,0,0,0-.02,.01-.03,.55-1.1,1.18-2.15,1.89-3.15,.03-.04,.05-.07,.08-.11,.7-.98,1.48-1.91,2.32-2.77,.02-.02,.04-.04,.06-.06,.41-.42,.83-.82,1.27-1.2,.05-.05,.11-.09,.16-.14,.87-.76,1.8-1.45,2.78-2.08,.07-.05,.14-.09,.21-.14,.48-.3,.96-.58,1.46-.85,.07-.04,.15-.07,.22-.11,.48-.25,.97-.49,1.47-.7,.04-.02,.08-.04,.12-.06,.52-.22,1.04-.42,1.58-.61,.11-.04,.21-.07,.32-.11,.53-.18,1.07-.34,1.62-.48,.06-.02,.13-.03,.2-.05,.51-.13,1.03-.23,1.56-.32,.1-.02,.19-.04,.29-.05,.56-.09,1.12-.16,1.69-.21,.12-.01,.24-.02,.36-.03,.59-.04,1.18-.07,1.78-.07,.52,0,1.03,.02,1.54,.05,.15,0,.3,.02,.45,.04,.38,.03,.75,.07,1.12,.12,.15,.02,.3,.04,.45,.06,.49,.07,.98,.16,1.46,.26,.06,.01,.12,.03,.18,.04,.42,.09,.84,.2,1.25,.32,.16,.05,.33,.1,.49,.15,.32,.1,.64,.2,.95,.31,.16,.06,.32,.11,.48,.17,.43,.16,.86,.34,1.29,.52,.13,.06,.25,.12,.37,.18,.31,.14,.62,.29,.92,.45,.18,.09,.36,.19,.53,.29,.25,.14,.5,.28,.75,.43,.17,.1,.35,.2,.51,.31,.37,.23,.73,.48,1.09,.73,.15,.11,.3,.23,.45,.34,.23,.17,.46,.34,.68,.52,.17,.14,.34,.28,.51,.42,.2,.17,.4,.35,.6,.53,.16,.14,.31,.28,.46,.43,1.89,1.81,3.49,3.93,4.72,6.28,1.42,2.74,4.53,4.14,7.5,3.34,3.81-1.02,5.78-5.12,4.4-8.71h.04c-.07-.15-.16-.29-.24-.44-.04-.08-.07-.17-.11-.25-.15-.29-.32-.56-.48-.85-.18-.33-.37-.67-.56-.99-.24-.4-.49-.79-.75-1.19-.2-.31-.4-.63-.61-.93-.27-.39-.56-.77-.84-1.15-.22-.29-.43-.58-.66-.87-.3-.38-.61-.74-.93-1.1-.23-.27-.46-.55-.7-.81-.33-.36-.67-.7-1-1.04-.25-.25-.49-.51-.75-.76-.35-.34-.71-.65-1.08-.98-.26-.23-.52-.47-.79-.7-.37-.31-.76-.61-1.15-.91-.28-.21-.55-.44-.83-.64-.4-.29-.8-.56-1.21-.83-.29-.2-.58-.4-.87-.58-.41-.26-.84-.5-1.27-.75-.31-.18-.61-.36-.92-.53-.43-.23-.88-.44-1.32-.66-.32-.16-.63-.32-.96-.47-.45-.2-.91-.38-1.37-.57-.33-.13-.65-.28-.99-.4-.47-.17-.95-.32-1.43-.48-.34-.11-.67-.23-1.01-.33-.49-.14-.99-.26-1.48-.38-.34-.08-.68-.18-1.02-.26-.52-.11-1.05-.2-1.57-.29-.33-.06-.66-.13-.99-.18-.59-.08-1.18-.14-1.77-.19-.29-.03-.57-.07-.85-.09-.88-.06-1.78-.1-2.68-.1-.59,0-1.17,.02-1.75,.04-.18,0-.37,.02-.55,.03-.4,.02-.8,.05-1.19,.09-.21,.02-.41,.04-.62,.06-.38,.04-.76,.09-1.14,.15-.19,.03-.39,.05-.58,.08-.44,.07-.88,.15-1.32,.24-.12,.02-.24,.04-.35,.07-.55,.11-1.09,.24-1.63,.38-.17,.04-.33,.09-.49,.13-.38,.1-.75,.21-1.12,.32-.2,.06-.41,.13-.61,.19-.33,.11-.66,.22-.99,.34-.21,.07-.41,.15-.62,.22-.34,.13-.68,.26-1.01,.4-.18,.07-.36,.14-.53,.22-.49,.21-.97,.43-1.45,.66-.17,.08-.34,.17-.5,.25-.32,.16-.64,.32-.95,.49-.22,.12-.43,.24-.64,.35-.26,.15-.52,.3-.78,.45-.22,.13-.44,.27-.66,.4-.24,.15-.48,.31-.72,.46-.22,.14-.44,.29-.66,.43-.25,.17-.49,.35-.73,.52-.38,.28-.76,.56-1.14,.85-.2,.16-.41,.31-.6,.48-.24,.19-.47,.39-.7,.59-.17,.15-.34,.29-.51,.44-.24,.21-.47,.42-.7,.64-.15,.14-.3,.29-.45,.43-.24,.23-.48,.46-.71,.7-.11,.11-.22,.23-.32,.34-.85,.89-1.65,1.82-2.41,2.79-.08,.1-.16,.2-.23,.29-.23,.3-.46,.61-.68,.92-.08,.11-.15,.22-.23,.32-.23,.32-.45,.65-.67,.98-.04,.07-.09,.14-.13,.21-1,1.54-1.88,3.16-2.65,4.85-.03,.07-.06,.13-.09,.2-.18,.4-.35,.81-.52,1.22-.02,.04-.03,.08-.05,.13-1.7,4.25-2.64,8.88-2.64,13.73,0,6.11,1.49,11.88,4.12,16.97,0,.02,.01,.04,.02,.05,.01,.02,.03,.04,.04,.06,1.1,2.11,2.39,4.09,3.85,5.94,1.11,2.46,.64,5.41-1.34,7.39l-.04,.04c-2.82,2.82-7.49,2.53-9.89-.64-.42-.57-.83-1.14-1.22-1.72-.07-.11-.14-.22-.21-.32-.34-.51-.67-1.02-.99-1.55-.13-.21-.25-.42-.38-.63-.26-.43-.51-.87-.76-1.32-.13-.23-.25-.46-.37-.68-.25-.47-.49-.94-.73-1.42-.1-.19-.2-.39-.29-.58-.32-.67-.63-1.35-.92-2.04-.04-.09-.07-.18-.11-.26-.25-.6-.49-1.21-.72-1.82-.09-.23-.16-.46-.25-.69-.17-.49-.34-.98-.5-1.47-.08-.25-.16-.5-.24-.76-.15-.51-.3-1.03-.44-1.54-.06-.22-.12-.44-.18-.66-.19-.74-.36-1.48-.51-2.22-.01-.06-.02-.11-.03-.17-.14-.69-.26-1.39-.37-2.1-.04-.24-.07-.49-.1-.73-.08-.53-.14-1.06-.2-1.59-.03-.27-.06-.54-.08-.82-.05-.54-.09-1.08-.12-1.63-.01-.25-.03-.49-.04-.74-.04-.78-.06-1.57-.06-2.36s.02-1.52,.06-2.28c.01-.24,.03-.49,.04-.73,.03-.53,.07-1.05,.12-1.58,.02-.26,.04-.52,.07-.78,1.14-10.7,5.66-20.4,12.46-28.03,.56-.63,1.14-1.25,1.73-1.85,0,0,0,0,.01-.01,1.84-1.86,3.82-3.58,5.92-5.14,.05-.04,.1-.07,.15-.11,.62-.46,1.26-.9,1.9-1.33,.12-.08,.25-.16,.37-.24,.59-.38,1.18-.75,1.78-1.11,.15-.09,.29-.17,.44-.26,.62-.36,1.24-.7,1.87-1.03,.12-.06,.24-.13,.37-.2,1.53-.79,3.1-1.5,4.71-2.13,.08-.03,.17-.06,.26-.09,.69-.27,1.39-.52,2.1-.75,.23-.08,.47-.15,.7-.22,.57-.18,1.14-.35,1.72-.51,.28-.08,.56-.15,.84-.22,.55-.14,1.1-.27,1.65-.4,.29-.07,.59-.13,.88-.19,.57-.12,1.15-.22,1.73-.31,.27-.05,.54-.1,.82-.14,.73-.11,1.47-.2,2.21-.28,.12-.01,.24-.03,.36-.04,.86-.08,1.73-.14,2.6-.18,.26-.01,.52-.01,.77-.02,.61-.02,1.23-.03,1.85-.02,.44,0,.88,.02,1.31,.03,.4,.01,.8,.02,1.2,.05,.4,.02,.8,.06,1.21,.09,.45,.04,.9,.07,1.34,.12,.29,.03,.58,.07,.87,.11,.56,.07,1.12,.14,1.67,.23,.11,.02,.21,.04,.32,.06,19.76,3.35,35.77,18.44,40.43,37.84Z"/></g></svg>